<?xml version="1.0" encoding="UTF-8"?>
<svg viewBox="0 0 24 24" xmlns="http://www.w3.org/2000/svg">
    <path d="M12 0C5.4 0 0 5.4 0 12s5.4 12 12 12 12-5.4 12-12S18.66 0 12 0zm5.521 17.34c-.24.371-.721.49-1.101.371-3.011-1.83-6.79-2.25-11.242-1.231-.418.101-.837-.16-.93-.56-.101-.418.16-.837.56-.93 4.891-1.12 8.991-.63 12.452 1.35.369.22.49.701.261 1zm1.44-3.21c-.301.42-.841.6-1.262.3-3.441-2.13-8.701-2.73-12.722-1.5-.501.15-1.002-.15-1.151-.6-.15-.501.15-1.001.601-1.152 4.621-1.389 10.381-.72 14.402 1.752.361.18.601.721.301 1.201zm.12-3.36C15.24 8.4 8.82 8.16 5.16 9.301c-.6.179-1.2-.181-1.38-.721-.18-.601.18-1.2.72-1.381 4.26-1.26 11.28-1.02 15.721 1.621.539.3.719 1.02.419 1.56-.299.421-1.02.599-1.559.3z" fill="currentColor"/>
</svg>