<?xml version="1.0" encoding="UTF-8"?>
<svg width="16" height="16" viewBox="0 0 16 16" fill="none" xmlns="http://www.w3.org/2000/svg">
    <path d="M13.5 8C13.5 6.23 12.48 4.71 11 3.97V2.83C13.13 3.67 14.5 5.7 14.5 8C14.5 10.3 13.13 12.33 11 13.17V12.03C12.48 11.29 13.5 9.77 13.5 8Z" fill="currentColor" opacity="0.3"/>
    <path d="M10 5.46V2C10 0.9 9.1 0 8 0C7.45 0 6.95 0.22 6.59 0.59L3.71 3.47L1.59 3.47C0.71 3.47 0 4.18 0 5.06V10.94C0 11.82 0.71 12.53 1.59 12.53L3.71 12.53L6.59 15.41C6.95 15.78 7.45 16 8 16C9.1 16 10 15.1 10 14V10.54" fill="currentColor" opacity="0.3"/>
    <path d="M13.9 2.1L2.1 13.9C1.7 14.3 1.1 14.3 0.7 13.9C0.3 13.5 0.3 12.9 0.7 12.5L12.5 0.7C12.9 0.3 13.5 0.3 13.9 0.7C14.3 1.1 14.3 1.7 13.9 2.1Z" fill="currentColor"/>
</svg> 